<svg width="44" height="50" viewBox="0 0 44 50" fill="none" xmlns="http://www.w3.org/2000/svg">
<path fill-rule="evenodd" clip-rule="evenodd" d="M0 37.3418C0 37.4547 0.0604844 37.5594 0.158266 37.6158L4.43366 40.0842C4.53144 40.1406 4.65221 40.1406 4.74999 40.0842C4.84797 40.0277 4.90825 39.9231 4.90825 39.8102V15.1266C4.90825 15.0135 4.84797 14.909 4.74999 14.8526L0.474596 12.3842C0.376814 12.3276 0.25625 12.3276 0.158266 12.3842C0.0604844 12.4407 0 12.5451 0 12.6582V37.3418ZM0.632863 37.1592V13.2062L4.27539 15.3092C4.27539 17.3479 4.27539 35.8275 4.27539 39.262L0.632863 37.1592Z" fill="white"/>
<path fill-rule="evenodd" clip-rule="evenodd" d="M8.55078 42.2785C8.55078 42.3916 8.61107 42.496 8.70885 42.5525L12.9842 45.0208C13.0822 45.0773 13.2028 45.0773 13.3006 45.0208C13.3985 44.9644 13.4588 44.86 13.4588 44.7468V20.0633C13.4588 19.9501 13.3985 19.8457 13.3006 19.7893L9.02538 17.3209C8.92739 17.2645 8.80683 17.2645 8.70885 17.3209C8.61107 17.3774 8.55078 17.4818 8.55078 17.5949V42.2785ZM9.18344 42.0958V18.1429L12.826 20.2459C12.826 20.2459 12.826 40.5783 12.826 44.1989L9.18344 42.0958Z" fill="white"/>
<path fill-rule="evenodd" clip-rule="evenodd" d="M17.1016 47.2152C17.1016 47.3283 17.1618 47.4327 17.2598 47.4892L21.535 49.9575C21.633 50.0142 21.7536 50.0142 21.8515 49.9575C21.9493 49.9011 22.0096 49.7966 22.0096 49.6835V24.9999C22.0096 24.887 21.9493 24.7824 21.8515 24.7259L17.5762 22.2576C17.4782 22.2011 17.3576 22.2011 17.2598 22.2576C17.1618 22.314 17.1016 22.4187 17.1016 22.5316V47.2152ZM17.7344 47.0325V23.0798L21.377 25.1826V49.1355L17.7344 47.0325Z" fill="white"/>
<path fill-rule="evenodd" clip-rule="evenodd" d="M0.158266 12.3842C0.0604844 12.4407 0 12.5451 0 12.6582C0 12.7713 0.0604844 12.8758 0.158266 12.9322L4.43366 15.4006C4.53144 15.457 4.65221 15.457 4.74999 15.4006L21.6931 5.61853L38.6362 15.4006C38.734 15.457 38.8547 15.457 38.9525 15.4006L43.2279 12.9322C43.3257 12.8758 43.3862 12.7713 43.3862 12.6582C43.3862 12.5451 43.3257 12.4407 43.2279 12.3842L21.8513 0.0423386C21.7534 -0.0141129 21.6328 -0.0141129 21.5348 0.0423386L0.158266 12.3842ZM0.949392 12.6582C3.92378 10.9409 19.9276 1.701 21.6931 0.681852C21.6931 0.681852 39.3015 10.848 42.4368 12.6582L38.7944 14.7612L21.8513 4.97902C21.7534 4.92257 21.6328 4.92257 21.5348 4.97902C21.5348 4.97902 6.3149 13.7663 4.59172 14.7612L0.949392 12.6582Z" fill="white"/>
<path fill-rule="evenodd" clip-rule="evenodd" d="M8.70885 17.3209C8.61107 17.3774 8.55078 17.4818 8.55078 17.5949C8.55078 17.708 8.61107 17.8125 8.70885 17.8689L12.9842 20.3372C13.0822 20.3939 13.2028 20.3939 13.3006 20.3372L21.6931 15.4919L30.0856 20.3372C30.1834 20.3939 30.3039 20.3939 30.4019 20.3372L34.6773 17.8689C34.7751 17.8125 34.8354 17.708 34.8354 17.5949C34.8354 17.4818 34.7751 17.3774 34.6773 17.3209L21.8513 9.91591C21.7534 9.85925 21.6328 9.85925 21.5348 9.91591L8.70885 17.3209ZM9.49997 17.5949C11.6475 16.355 20.4062 11.2982 21.6931 10.5552L33.8862 17.5949L30.2437 19.6979L21.8513 14.8526C21.7534 14.7959 21.6328 14.7959 21.5348 14.8526C21.5348 14.8526 14.3092 19.0243 13.1425 19.6979L9.49997 17.5949Z" fill="white"/>
<path fill-rule="evenodd" clip-rule="evenodd" d="M17.2598 22.2576C17.1618 22.314 17.1016 22.4187 17.1016 22.5316C17.1016 22.6447 17.1618 22.7491 17.2598 22.8056L21.535 25.2739C21.633 25.3306 21.7536 25.3306 21.8515 25.2739L26.1267 22.8056C26.2247 22.7491 26.285 22.6447 26.285 22.5316C26.285 22.4187 26.2247 22.314 26.1267 22.2576L21.8515 19.7892C21.7536 19.7328 21.633 19.7328 21.535 19.7892L17.2598 22.2576ZM18.0508 22.5316L21.6933 20.4286L25.3358 22.5316L21.6933 24.6346L18.0508 22.5316Z" fill="white"/>
<path fill-rule="evenodd" clip-rule="evenodd" d="M21.6934 49.6835L25.9687 47.2152V22.5316L21.6934 24.9999V49.6835Z" fill="white"/>
<path fill-rule="evenodd" clip-rule="evenodd" d="M21.377 49.6835C21.377 49.7966 21.4372 49.9011 21.535 49.9575C21.633 50.0142 21.7536 50.0142 21.8515 49.9575L26.1267 47.4892C26.2247 47.4327 26.285 47.3283 26.285 47.2152V22.5316C26.285 22.4187 26.2247 22.314 26.1267 22.2576C26.029 22.2011 25.9082 22.2011 25.8104 22.2576L21.535 24.7259C21.4372 24.7824 21.377 24.887 21.377 24.9999V49.6835ZM22.0096 49.1355V25.1826L25.6521 23.0798V47.0325L22.0096 49.1355Z" fill="white"/>
<path fill-rule="evenodd" clip-rule="evenodd" d="M30.2432 44.7468L34.5186 42.2785V17.5949L30.2432 20.0632V44.7468Z" fill="white"/>
<path fill-rule="evenodd" clip-rule="evenodd" d="M29.9277 44.7468C29.9277 44.86 29.988 44.9644 30.086 45.0208C30.1838 45.0773 30.3043 45.0773 30.4023 45.0208L34.6777 42.5525C34.7755 42.496 34.8358 42.3916 34.8358 42.2785V17.5949C34.8358 17.4818 34.7755 17.3774 34.6777 17.3209C34.5797 17.2645 34.4592 17.2645 34.3612 17.3209L30.086 19.7893C29.988 19.8457 29.9277 19.9501 29.9277 20.0633V44.7468ZM30.5606 44.1989V20.2459L34.2029 18.1429V42.0958L30.5606 44.1989Z" fill="white"/>
<path fill-rule="evenodd" clip-rule="evenodd" d="M38.7939 39.8102V15.1266L43.0691 12.6582V37.3418L38.7939 39.8102Z" fill="white"/>
<path fill-rule="evenodd" clip-rule="evenodd" d="M38.4775 39.8102C38.4775 39.9231 38.5378 40.0277 38.6358 40.0842C38.7336 40.1406 38.8544 40.1406 38.9521 40.0842L43.2275 37.6158C43.3253 37.5594 43.3858 37.4547 43.3858 37.3418V12.6582C43.3858 12.5451 43.3253 12.4407 43.2275 12.3842C43.1295 12.3276 43.009 12.3276 42.911 12.3842L38.6358 14.8526C38.5378 14.909 38.4775 15.0135 38.4775 15.1266V39.8102ZM39.1104 39.262V15.3092L42.7529 13.2062C42.7529 16.6409 42.7529 35.1205 42.7529 37.1592L39.1104 39.262Z" fill="white"/>
<path fill-rule="evenodd" clip-rule="evenodd" d="M4.5918 39.8102L8.86719 37.3418V17.5949L21.6932 10.1899V5.25322L4.5918 15.1266V39.8102Z" fill="white"/>
<path fill-rule="evenodd" clip-rule="evenodd" d="M4.27539 39.8102C4.27539 39.9231 4.33567 40.0277 4.43366 40.0841C4.53144 40.1406 4.6522 40.1406 4.74999 40.0841L9.02538 37.6158C9.12316 37.5594 9.18344 37.4547 9.18344 37.3418V17.7776L21.8513 10.4639C21.9491 10.4074 22.0094 10.3028 22.0094 10.1899V5.2532C22.0094 5.1401 21.9491 5.03566 21.8513 4.97901C21.7534 4.92256 21.6328 4.92256 21.5348 4.97901L4.43366 14.8526C4.33567 14.909 4.27539 15.0135 4.27539 15.1266V39.8102ZM4.90825 39.262V15.3092L21.3768 5.80119V10.0072L8.70885 17.3209C8.61106 17.3774 8.55078 17.4818 8.55078 17.5949V37.1592L4.90825 39.262Z" fill="white"/>
<path fill-rule="evenodd" clip-rule="evenodd" d="M38.6364 40.0841C38.7342 40.1406 38.8549 40.1406 38.9527 40.0841C39.0507 40.0277 39.111 39.9231 39.111 39.8102V15.1266C39.111 15.0135 39.0507 14.909 38.9527 14.8526L21.8515 4.97901C21.7536 4.92256 21.633 4.92256 21.535 4.97901C21.4372 5.03566 21.377 5.1401 21.377 5.2532V10.1899C21.377 10.3028 21.4372 10.4074 21.535 10.4639L34.2027 17.7776V37.3418C34.2027 37.4547 34.2632 37.5594 34.361 37.6158L38.6364 40.0841ZM38.4781 39.262L34.8356 37.1592C34.8356 35.1692 34.8356 17.5949 34.8356 17.5949C34.8356 17.4818 34.7753 17.3774 34.6775 17.3209C34.6775 17.3209 23.4784 10.855 22.0096 10.0072V5.80119L38.4781 15.3092V39.262Z" fill="white"/>
<path fill-rule="evenodd" clip-rule="evenodd" d="M13.1426 44.7468L17.4178 42.2785V22.5316L21.6932 20.0632V15.1266L13.1426 20.0632V44.7468Z" fill="white"/>
<path fill-rule="evenodd" clip-rule="evenodd" d="M12.8262 44.7468C12.8262 44.8599 12.8864 44.9644 12.9844 45.0208C13.0824 45.0773 13.203 45.0773 13.3008 45.0208L17.5762 42.5525C17.6741 42.496 17.7344 42.3916 17.7344 42.2785V22.7142L21.8515 20.3372C21.9493 20.2808 22.0096 20.1763 22.0096 20.0632V15.1266C22.0096 15.0135 21.9493 14.909 21.8515 14.8526C21.7536 14.7959 21.633 14.7959 21.535 14.8526L12.9844 19.7893C12.8864 19.8457 12.8262 19.9501 12.8262 20.0632V44.7468ZM13.459 44.1989C13.459 44.1989 13.459 22.4673 13.459 20.2459L21.377 15.6746V19.8806L17.2598 22.2576C17.1618 22.314 17.1016 22.4187 17.1016 22.5316V42.0958L13.459 44.1989Z" fill="white"/>
<path fill-rule="evenodd" clip-rule="evenodd" d="M30.0858 45.0208C30.1836 45.0773 30.3041 45.0773 30.4021 45.0208C30.5001 44.9644 30.5604 44.8599 30.5604 44.7468V20.0632C30.5604 19.9501 30.5001 19.8457 30.4021 19.7893L21.8515 14.8526C21.7536 14.7959 21.633 14.7959 21.535 14.8526C21.4372 14.909 21.377 15.0135 21.377 15.1266V20.0632C21.377 20.1763 21.4372 20.2808 21.535 20.3372L25.6521 22.7142V42.2785C25.6521 42.3916 25.7124 42.496 25.8104 42.5525L30.0858 45.0208ZM29.9275 44.1989L26.285 42.0958C26.285 40.1061 26.285 22.5316 26.285 22.5316C26.285 22.4187 26.2247 22.314 26.1267 22.2576L22.0096 19.8806V15.6746C22.0096 15.6746 28.7985 19.5941 29.9275 20.2459V44.1989Z" fill="white"/>
</svg>
